<svg width="512" height="512" viewBox="0 0 512 512" xmlns="http://www.w3.org/2000/svg">
  <defs>
    <linearGradient id="mainGradient" x1="0%" y1="100%" x2="100%" y2="0%">
      <stop offset="0%" stop-color="#4A3BFF"></stop>
      <stop offset="45%" stop-color="#6D5BFF"></stop>
      <stop offset="100%" stop-color="#C8B6FF"></stop>
    </linearGradient>

    <linearGradient id="highlight" x1="0%" y1="0%" x2="100%" y2="100%">
      <stop offset="0%" stop-color="#F2ECFF" stop-opacity="0.9"></stop>
      <stop offset="100%" stop-color="#FFFFFF" stop-opacity="0"></stop>
    </linearGradient>

    <filter id="shadow" x="-20%" y="-20%" width="140%" height="140%">
      <feDropShadow dx="0" dy="8" stdDeviation="10" flood-color="#3E32CC" flood-opacity="0.25"></feDropShadow>
    </filter>
  </defs>

  <g filter="url(#shadow)">
    <!-- Main P -->
    <path fill="url(#mainGradient)" d="
      M160 90
      C160 75 172 64 187 64
      L280 64
      C364 64 432 132 432 216
      C432 300 364 368 280 368
      L254 368
      C238 368 226 356 226 340
      C226 323 238 311 254 311
      L280 311
      C332 311 374 269 374 216
      C374 163 332 121 280 121
      L218 121
      L218 410
      C218 427 205 440 188 440
      L187 440
      C172 440 160 428 160 413
      Z"></path>

    <!-- Inner cut -->
    <path fill="white" d="
      M252 156
      L280 156
      C314 156 342 183 342 216
      C342 250 314 278 280 278
      L252 278
      Z"></path>

    <!-- Highlight -->
    <path fill="url(#highlight)" opacity="0.65" d="
      M178 88
      C205 70 245 62 282 66
      C330 71 372 99 395 139
      C360 113 314 101 265 101
      C232 101 202 96 178 88
      Z"></path>
  </g>
</svg>